<?xml version="1.0" encoding="utf-8"?>
<!-- Generator: Adobe Illustrator 24.0.1, SVG Export Plug-In . SVG Version: 6.00 Build 0)  -->
<svg version="1.1" id="Layer_1" xmlns="http://www.w3.org/2000/svg" xmlns:xlink="http://www.w3.org/1999/xlink" x="0px" y="0px"
	 viewBox="0 0 512 512" style="enable-background:new 0 0 512 512;" xml:space="preserve">
<g id="Layer_1_1_">
</g>
<g id="Layer_2_1_">
	<g>
		<path d="M476,181.4c-2.1-3-5.6-4.8-9.2-4.8h-70.1v-29.9c0-6.2-5.1-11.3-11.3-11.3h-254c-6.2,0-11.3,5.1-11.3,11.3v182.7
			c0,6.2,5.1,11.3,11.3,11.3h32c5.9,20.5,24.9,35.7,47.2,35.7s41.3-15.1,47.2-35.7h125.3c5.9,20.5,24.9,35.7,47.2,35.7
			s41.3-15.1,47.2-35.7h23.4c6.2,0,11.3-5.1,11.3-11.3v-93c0-2.4-0.8-4.7-2.1-6.5L476,181.4z M489.5,239.8h-50.7v-40.4H461
			L489.5,239.8z M142.6,158.2H374v160.1H258.7c-4.4-22.8-24.3-40-48.2-40s-44,17.2-48.2,40h-19.6L142.6,158.2L142.6,158.2z
			 M210.5,353.9c-14.6,0-26.5-11.9-26.5-26.5c0-14.6,11.9-26.5,26.5-26.5s26.5,11.9,26.5,26.5C237,342,225.1,353.9,210.5,353.9z
			 M430.3,353.9c-14.6,0-26.5-11.9-26.5-26.5c0-14.6,11.9-26.5,26.5-26.5s26.5,11.9,26.5,26.5C456.8,342,444.9,353.9,430.3,353.9z
			 M478.5,318.3c-4.4-22.8-24.3-40-48.2-40c-13,0-24.9,5.1-33.6,13.4v-92.4h19.4v51.7c0,6.2,5.1,11.3,11.3,11.3h62.3v55.9H478.5z"/>
		<path d="M11.3,158.2H92c6.2,0,11.3-5.1,11.3-11.3s-5.1-11.3-11.3-11.3H11.3c-6.2,0-11.3,5.1-11.3,11.3S5.1,158.2,11.3,158.2z"/>
		<path d="M92,176.8H29.9c-6.2,0-11.3,5.1-11.3,11.3s5.1,11.3,11.3,11.3H92c6.2,0,11.3-5.1,11.3-11.3S98.3,176.8,92,176.8z"/>
		<path d="M92,217.9H52.8c-6.2,0-11.3,5.1-11.3,11.3c0,6.2,5.1,11.3,11.3,11.3H92c6.2,0,11.3-5.1,11.3-11.3
			C103.3,223.1,98.3,217.9,92,217.9z"/>
		<path d="M92,259.1H78.4c-6.2,0-11.3,5.1-11.3,11.3s5.1,11.3,11.3,11.3H92c6.2,0,11.3-5.1,11.3-11.3S98.3,259.1,92,259.1z"/>
	</g>
</g>
</svg>
