<?xml version="1.0" encoding="utf-8"?>
<!-- Generator: Adobe Illustrator 24.0.1, SVG Export Plug-In . SVG Version: 6.00 Build 0)  -->
<svg version="1.1" id="pin-destination-map-location"
	 xmlns="http://www.w3.org/2000/svg" xmlns:xlink="http://www.w3.org/1999/xlink" x="0px" y="0px" viewBox="0 0 15 15"
	 style="enable-background:new 0 0 15 15;" xml:space="preserve">
<path d="M10.4,0.8c-1.6-1.1-3.8-1.1-5.4,0C3,2.2,2.3,5,3.5,7.2L7.8,15L12,7.2C13.2,5,12.6,2.2,10.4,0.8z M11.2,6.7L7.8,13L4.3,6.7
	c-1-1.8-0.4-4,1.3-5.1C6.2,1.2,7,1,7.8,1s1.5,0.2,2.2,0.7C11.6,2.7,12.1,4.9,11.2,6.7z"/>
<path d="M7.8,2C6.4,2,5.4,3.1,5.4,4.4s1.1,2.4,2.4,2.4s2.4-1.1,2.4-2.4S9.1,2,7.8,2z M7.8,5.8C7,5.8,6.3,5.2,6.3,4.4S7,3,7.8,3
	s1.4,0.6,1.4,1.4S8.5,5.8,7.8,5.8z"/>
</svg>
